<?xml version="1.0" standalone="no"?>
<!DOCTYPE svg PUBLIC "-//W3C//DTD SVG 20010904//EN"
 "http://www.w3.org/TR/2001/REC-SVG-20010904/DTD/svg10.dtd">
<svg version="1.0" xmlns="http://www.w3.org/2000/svg"
 width="268.000000pt" height="235.000000pt" viewBox="0 0 268.000000 235.000000"
 preserveAspectRatio="xMidYMid meet">

<g transform="translate(0.000000,235.000000) scale(0.100000,-0.100000)"
fill="#000000" stroke="none">
<path d="M290 1180 l0 -1030 90 0 90 0 0 945 0 945 543 0 c616 0 592 3 635
-80 40 -80 24 -165 -44 -216 l-37 -29 -356 -5 -356 -5 0 -305 0 -305 355 -5
c387 -5 387 -5 426 -65 37 -57 12 -158 -49 -195 -30 -19 -52 -20 -380 -20
l-347 0 2 -332 3 -333 415 1 c452 0 510 6 647 61 209 84 368 269 438 509 65
225 4 503 -144 656 l-61 62 28 34 c58 73 75 99 103 157 45 94 60 168 60 291 0
104 -20 233 -43 277 -7 14 -23 17 -97 17 l-89 0 25 -77 c29 -91 41 -248 25
-333 -31 -164 -106 -263 -256 -335 -72 -35 -87 -45 -71 -51 142 -49 265 -146
315 -247 35 -72 60 -178 60 -257 0 -210 -137 -434 -320 -524 -123 -60 -172
-66 -542 -66 l-328 0 0 155 0 155 243 0 c264 0 340 9 403 46 115 66 179 233
140 365 -22 75 -80 147 -146 184 l-55 30 -290 5 -290 5 0 135 0 135 270 1
c252 1 274 2 326 23 75 29 138 86 174 157 28 55 30 67 29 164 0 74 -5 115 -16
140 -32 70 -74 115 -139 150 l-64 35 -662 3 -663 3 0 -1031z"/>
</g>
</svg>
